<svg width="208" height="179" viewBox="0 0 208 179" fill="none" xmlns="http://www.w3.org/2000/svg">
<path d="M1.12 119.8C1.12 117.603 1.61067 115.64 2.592 113.912C3.59467 112.163 4.94933 110.808 6.656 109.848C8.384 108.867 10.3147 108.376 12.448 108.376C14.944 108.376 17.1307 109.016 19.008 110.296C20.8853 111.576 22.1973 113.347 22.944 115.608H17.792C17.28 114.541 16.5547 113.741 15.616 113.208C14.6987 112.675 13.632 112.408 12.416 112.408C11.1147 112.408 9.952 112.717 8.928 113.336C7.92533 113.933 7.136 114.787 6.56 115.896C6.00533 117.005 5.728 118.307 5.728 119.8C5.728 121.272 6.00533 122.573 6.56 123.704C7.136 124.813 7.92533 125.677 8.928 126.296C9.952 126.893 11.1147 127.192 12.416 127.192C13.632 127.192 14.6987 126.925 15.616 126.392C16.5547 125.837 17.28 125.027 17.792 123.96H22.944C22.1973 126.243 20.8853 128.024 19.008 129.304C17.152 130.563 14.9653 131.192 12.448 131.192C10.3147 131.192 8.384 130.712 6.656 129.752C4.94933 128.771 3.59467 127.416 2.592 125.688C1.61067 123.96 1.12 121.997 1.12 119.8ZM34.6425 131.288C32.9358 131.288 31.3998 130.915 30.0345 130.168C28.6692 129.4 27.5918 128.323 26.8025 126.936C26.0345 125.549 25.6505 123.949 25.6505 122.136C25.6505 120.323 26.0452 118.723 26.8345 117.336C27.6452 115.949 28.7438 114.883 30.1305 114.136C31.5172 113.368 33.0638 112.984 34.7705 112.984C36.4772 112.984 38.0238 113.368 39.4105 114.136C40.7972 114.883 41.8852 115.949 42.6745 117.336C43.4852 118.723 43.8905 120.323 43.8905 122.136C43.8905 123.949 43.4745 125.549 42.6425 126.936C41.8318 128.323 40.7225 129.4 39.3145 130.168C37.9278 130.915 36.3705 131.288 34.6425 131.288ZM34.6425 127.384C35.4532 127.384 36.2105 127.192 36.9145 126.808C37.6398 126.403 38.2158 125.805 38.6425 125.016C39.0692 124.227 39.2825 123.267 39.2825 122.136C39.2825 120.451 38.8345 119.16 37.9385 118.264C37.0638 117.347 35.9865 116.888 34.7065 116.888C33.4265 116.888 32.3492 117.347 31.4745 118.264C30.6212 119.16 30.1945 120.451 30.1945 122.136C30.1945 123.821 30.6105 125.123 31.4425 126.04C32.2958 126.936 33.3625 127.384 34.6425 127.384ZM57.0008 113.016C59.1128 113.016 60.8194 113.688 62.1208 115.032C63.4221 116.355 64.0728 118.211 64.0728 120.6V131H59.5928V121.208C59.5928 119.8 59.2408 118.723 58.5368 117.976C57.8328 117.208 56.8728 116.824 55.6568 116.824C54.4194 116.824 53.4381 117.208 52.7128 117.976C52.0088 118.723 51.6568 119.8 51.6568 121.208V131H47.1768V113.272H51.6568V115.48C52.2541 114.712 53.0114 114.115 53.9288 113.688C54.8674 113.24 55.8914 113.016 57.0008 113.016ZM76.461 116.952H73.357V131H68.813V116.952H66.797V113.272H68.813V112.376C68.813 110.2 69.4317 108.6 70.669 107.576C71.9063 106.552 73.773 106.072 76.269 106.136V109.912C75.181 109.891 74.4237 110.072 73.997 110.456C73.5703 110.84 73.357 111.533 73.357 112.536V113.272H76.461V116.952ZM81.6363 111.16C80.8469 111.16 80.1856 110.915 79.6523 110.424C79.1403 109.912 78.8843 109.283 78.8843 108.536C78.8843 107.789 79.1403 107.171 79.6523 106.68C80.1856 106.168 80.8469 105.912 81.6363 105.912C82.4256 105.912 83.0763 106.168 83.5883 106.68C84.1216 107.171 84.3883 107.789 84.3883 108.536C84.3883 109.283 84.1216 109.912 83.5883 110.424C83.0763 110.915 82.4256 111.16 81.6363 111.16ZM83.8443 113.272V131H79.3643V113.272H83.8443ZM92.7505 116.024C93.3265 115.085 94.0732 114.349 94.9905 113.816C95.9292 113.283 96.9958 113.016 98.1905 113.016V117.72H97.0065C95.5985 117.72 94.5318 118.051 93.8065 118.712C93.1025 119.373 92.7505 120.525 92.7505 122.168V131H88.2705V113.272H92.7505V116.024ZM123.224 113.016C125.4 113.016 127.149 113.688 128.472 115.032C129.816 116.355 130.488 118.211 130.488 120.6V131H126.008V121.208C126.008 119.821 125.656 118.765 124.952 118.04C124.248 117.293 123.288 116.92 122.072 116.92C120.856 116.92 119.885 117.293 119.16 118.04C118.456 118.765 118.104 119.821 118.104 121.208V131H113.624V121.208C113.624 119.821 113.272 118.765 112.568 118.04C111.864 117.293 110.904 116.92 109.688 116.92C108.451 116.92 107.469 117.293 106.744 118.04C106.04 118.765 105.688 119.821 105.688 121.208V131H101.208V113.272H105.688V115.416C106.264 114.669 107 114.083 107.896 113.656C108.813 113.229 109.816 113.016 110.904 113.016C112.291 113.016 113.528 113.315 114.616 113.912C115.704 114.488 116.547 115.32 117.144 116.408C117.72 115.384 118.552 114.563 119.64 113.944C120.749 113.325 121.944 113.016 123.224 113.016ZM133.587 122.072C133.587 120.28 133.939 118.691 134.643 117.304C135.369 115.917 136.339 114.851 137.555 114.104C138.793 113.357 140.169 112.984 141.683 112.984C143.006 112.984 144.158 113.251 145.139 113.784C146.142 114.317 146.942 114.989 147.539 115.8V113.272H152.051V131H147.539V128.408C146.963 129.24 146.163 129.933 145.139 130.488C144.137 131.021 142.974 131.288 141.651 131.288C140.158 131.288 138.793 130.904 137.555 130.136C136.339 129.368 135.369 128.291 134.643 126.904C133.939 125.496 133.587 123.885 133.587 122.072ZM147.539 122.136C147.539 121.048 147.326 120.12 146.899 119.352C146.473 118.563 145.897 117.965 145.171 117.56C144.446 117.133 143.667 116.92 142.835 116.92C142.003 116.92 141.235 117.123 140.531 117.528C139.827 117.933 139.251 118.531 138.803 119.32C138.377 120.088 138.163 121.005 138.163 122.072C138.163 123.139 138.377 124.077 138.803 124.888C139.251 125.677 139.827 126.285 140.531 126.712C141.257 127.139 142.025 127.352 142.835 127.352C143.667 127.352 144.446 127.149 145.171 126.744C145.897 126.317 146.473 125.72 146.899 124.952C147.326 124.163 147.539 123.224 147.539 122.136ZM155.275 122.072C155.275 120.28 155.627 118.691 156.331 117.304C157.056 115.917 158.037 114.851 159.275 114.104C160.512 113.357 161.888 112.984 163.403 112.984C164.555 112.984 165.653 113.24 166.699 113.752C167.744 114.243 168.576 114.904 169.195 115.736V107.32H173.739V131H169.195V128.376C168.64 129.251 167.861 129.955 166.859 130.488C165.856 131.021 164.693 131.288 163.371 131.288C161.877 131.288 160.512 130.904 159.275 130.136C158.037 129.368 157.056 128.291 156.331 126.904C155.627 125.496 155.275 123.885 155.275 122.072ZM169.227 122.136C169.227 121.048 169.013 120.12 168.587 119.352C168.16 118.563 167.584 117.965 166.859 117.56C166.133 117.133 165.355 116.92 164.523 116.92C163.691 116.92 162.923 117.123 162.219 117.528C161.515 117.933 160.939 118.531 160.491 119.32C160.064 120.088 159.851 121.005 159.851 122.072C159.851 123.139 160.064 124.077 160.491 124.888C160.939 125.677 161.515 126.285 162.219 126.712C162.944 127.139 163.712 127.352 164.523 127.352C165.355 127.352 166.133 127.149 166.859 126.744C167.584 126.317 168.16 125.72 168.587 124.952C169.013 124.163 169.227 123.224 169.227 122.136ZM185.986 131.288C184.28 131.288 182.744 130.915 181.378 130.168C180.013 129.4 178.936 128.323 178.146 126.936C177.378 125.549 176.994 123.949 176.994 122.136C176.994 120.323 177.389 118.723 178.178 117.336C178.989 115.949 180.088 114.883 181.474 114.136C182.861 113.368 184.408 112.984 186.114 112.984C187.821 112.984 189.368 113.368 190.754 114.136C192.141 114.883 193.229 115.949 194.018 117.336C194.829 118.723 195.234 120.323 195.234 122.136C195.234 123.949 194.818 125.549 193.986 126.936C193.176 128.323 192.066 129.4 190.658 130.168C189.272 130.915 187.714 131.288 185.986 131.288ZM185.986 127.384C186.797 127.384 187.554 127.192 188.258 126.808C188.984 126.403 189.56 125.805 189.986 125.016C190.413 124.227 190.626 123.267 190.626 122.136C190.626 120.451 190.178 119.16 189.282 118.264C188.408 117.347 187.33 116.888 186.05 116.888C184.77 116.888 183.693 117.347 182.818 118.264C181.965 119.16 181.538 120.451 181.538 122.136C181.538 123.821 181.954 125.123 182.786 126.04C183.64 126.936 184.706 127.384 185.986 127.384ZM204.312 108.28L203.801 123.736H200.025L199.481 108.28H204.312ZM202.009 131.224C201.198 131.224 200.526 130.979 199.993 130.488C199.481 129.976 199.225 129.347 199.225 128.6C199.225 127.853 199.481 127.235 199.993 126.744C200.526 126.232 201.198 125.976 202.009 125.976C202.798 125.976 203.449 126.232 203.961 126.744C204.473 127.235 204.729 127.853 204.729 128.6C204.729 129.347 204.473 129.976 203.961 130.488C203.449 130.979 202.798 131.224 202.009 131.224Z" fill="#070707"/>
<path d="M40.2638 157.084C39.4878 157.084 38.7838 156.904 38.1518 156.544C37.5198 156.176 37.0198 155.668 36.6518 155.02C36.2918 154.364 36.1118 153.624 36.1118 152.8C36.1118 151.976 36.2918 151.24 36.6518 150.592C37.0198 149.936 37.5198 149.428 38.1518 149.068C38.7838 148.7 39.4878 148.516 40.2638 148.516C41.0478 148.516 41.7558 148.7 42.3878 149.068C43.0198 149.428 43.5158 149.936 43.8758 150.592C44.2358 151.24 44.4158 151.976 44.4158 152.8C44.4158 153.624 44.2358 154.364 43.8758 155.02C43.5158 155.668 43.0198 156.176 42.3878 156.544C41.7558 156.904 41.0478 157.084 40.2638 157.084ZM40.2638 156.352C40.8878 156.352 41.4478 156.208 41.9438 155.92C42.4398 155.632 42.8318 155.22 43.1198 154.684C43.4078 154.14 43.5518 153.512 43.5518 152.8C43.5518 152.088 43.4078 151.464 43.1198 150.928C42.8318 150.392 42.4398 149.98 41.9438 149.692C41.4478 149.404 40.8878 149.26 40.2638 149.26C39.6398 149.26 39.0798 149.404 38.5838 149.692C38.0878 149.98 37.6958 150.392 37.4078 150.928C37.1198 151.464 36.9758 152.088 36.9758 152.8C36.9758 153.512 37.1198 154.14 37.4078 154.684C37.6958 155.22 38.0878 155.632 38.5838 155.92C39.0798 156.208 39.6398 156.352 40.2638 156.352ZM51.5018 157.096C50.7498 157.096 50.1338 156.924 49.6538 156.58C49.1818 156.228 48.9178 155.752 48.8618 155.152H49.7258C49.7658 155.52 49.9378 155.82 50.2418 156.052C50.5538 156.276 50.9698 156.388 51.4898 156.388C51.9458 156.388 52.3018 156.28 52.5578 156.064C52.8218 155.848 52.9538 155.58 52.9538 155.26C52.9538 155.036 52.8818 154.852 52.7378 154.708C52.5938 154.564 52.4098 154.452 52.1858 154.372C51.9698 154.284 51.6738 154.192 51.2978 154.096C50.8098 153.968 50.4138 153.84 50.1098 153.712C49.8058 153.584 49.5458 153.396 49.3298 153.148C49.1218 152.892 49.0178 152.552 49.0178 152.128C49.0178 151.808 49.1138 151.512 49.3058 151.24C49.4978 150.968 49.7698 150.752 50.1218 150.592C50.4738 150.432 50.8738 150.352 51.3218 150.352C52.0258 150.352 52.5938 150.532 53.0258 150.892C53.4578 151.244 53.6898 151.732 53.7218 152.356H52.8818C52.8578 151.972 52.7058 151.664 52.4258 151.432C52.1538 151.192 51.7778 151.072 51.2978 151.072C50.8738 151.072 50.5298 151.172 50.2658 151.372C50.0018 151.572 49.8698 151.82 49.8698 152.116C49.8698 152.372 49.9458 152.584 50.0978 152.752C50.2578 152.912 50.4538 153.04 50.6858 153.136C50.9178 153.224 51.2298 153.324 51.6218 153.436C52.0938 153.564 52.4698 153.688 52.7498 153.808C53.0298 153.928 53.2698 154.104 53.4698 154.336C53.6698 154.568 53.7738 154.876 53.7818 155.26C53.7818 155.612 53.6858 155.928 53.4938 156.208C53.3018 156.48 53.0338 156.696 52.6898 156.856C52.3458 157.016 51.9498 157.096 51.5018 157.096ZM55.783 149.212C55.615 149.212 55.471 149.152 55.351 149.032C55.231 148.912 55.171 148.764 55.171 148.588C55.171 148.412 55.231 148.268 55.351 148.156C55.471 148.036 55.615 147.976 55.783 147.976C55.951 147.976 56.095 148.036 56.215 148.156C56.335 148.268 56.395 148.412 56.395 148.588C56.395 148.764 56.335 148.912 56.215 149.032C56.095 149.152 55.951 149.212 55.783 149.212ZM56.203 150.448V157H55.363V150.448H56.203ZM60.3612 157.096C59.6092 157.096 58.9932 156.924 58.5132 156.58C58.0412 156.228 57.7772 155.752 57.7212 155.152H58.5852C58.6252 155.52 58.7972 155.82 59.1012 156.052C59.4132 156.276 59.8292 156.388 60.3492 156.388C60.8052 156.388 61.1612 156.28 61.4172 156.064C61.6812 155.848 61.8132 155.58 61.8132 155.26C61.8132 155.036 61.7412 154.852 61.5972 154.708C61.4532 154.564 61.2692 154.452 61.0452 154.372C60.8292 154.284 60.5332 154.192 60.1572 154.096C59.6692 153.968 59.2732 153.84 58.9692 153.712C58.6652 153.584 58.4052 153.396 58.1892 153.148C57.9812 152.892 57.8772 152.552 57.8772 152.128C57.8772 151.808 57.9732 151.512 58.1652 151.24C58.3572 150.968 58.6292 150.752 58.9812 150.592C59.3332 150.432 59.7332 150.352 60.1812 150.352C60.8852 150.352 61.4532 150.532 61.8852 150.892C62.3172 151.244 62.5492 151.732 62.5812 152.356H61.7412C61.7172 151.972 61.5652 151.664 61.2852 151.432C61.0132 151.192 60.6372 151.072 60.1572 151.072C59.7332 151.072 59.3892 151.172 59.1252 151.372C58.8612 151.572 58.7292 151.82 58.7292 152.116C58.7292 152.372 58.8052 152.584 58.9572 152.752C59.1172 152.912 59.3132 153.04 59.5452 153.136C59.7772 153.224 60.0892 153.324 60.4812 153.436C60.9532 153.564 61.3292 153.688 61.6092 153.808C61.8892 153.928 62.1292 154.104 62.3292 154.336C62.5292 154.568 62.6332 154.876 62.6412 155.26C62.6412 155.612 62.5452 155.928 62.3532 156.208C62.1612 156.48 61.8932 156.696 61.5492 156.856C61.2052 157.016 60.8092 157.096 60.3612 157.096ZM65.3144 151.156V155.224C65.3144 155.624 65.3904 155.9 65.5424 156.052C65.6944 156.204 65.9624 156.28 66.3464 156.28H67.1144V157H66.2144C65.6224 157 65.1824 156.864 64.8944 156.592C64.6064 156.312 64.4624 155.856 64.4624 155.224V151.156H63.5504V150.448H64.4624V148.804H65.3144V150.448H67.1144V151.156H65.3144ZM74.4277 153.388C74.4277 153.676 74.4197 153.896 74.4037 154.048H68.9677C68.9917 154.544 69.1117 154.968 69.3277 155.32C69.5437 155.672 69.8277 155.94 70.1797 156.124C70.5317 156.3 70.9157 156.388 71.3317 156.388C71.8757 156.388 72.3317 156.256 72.6997 155.992C73.0757 155.728 73.3237 155.372 73.4437 154.924H74.3317C74.1717 155.564 73.8277 156.088 73.2997 156.496C72.7797 156.896 72.1237 157.096 71.3317 157.096C70.7157 157.096 70.1637 156.96 69.6757 156.688C69.1877 156.408 68.8037 156.016 68.5237 155.512C68.2517 155 68.1157 154.404 68.1157 153.724C68.1157 153.044 68.2517 152.448 68.5237 151.936C68.7957 151.424 69.1757 151.032 69.6637 150.76C70.1517 150.488 70.7077 150.352 71.3317 150.352C71.9557 150.352 72.4997 150.488 72.9637 150.76C73.4357 151.032 73.7957 151.4 74.0437 151.864C74.2997 152.32 74.4277 152.828 74.4277 153.388ZM73.5757 153.364C73.5837 152.876 73.4837 152.46 73.2757 152.116C73.0757 151.772 72.7997 151.512 72.4477 151.336C72.0957 151.16 71.7117 151.072 71.2957 151.072C70.6717 151.072 70.1397 151.272 69.6997 151.672C69.2597 152.072 69.0157 152.636 68.9677 153.364H73.5757ZM83.7646 150.328C84.5326 150.328 85.1566 150.572 85.6366 151.06C86.1246 151.54 86.3686 152.24 86.3686 153.16V157H85.5406V153.256C85.5406 152.544 85.3686 152 85.0246 151.624C84.6806 151.248 84.2126 151.06 83.6206 151.06C83.0046 151.06 82.5126 151.264 82.1446 151.672C81.7766 152.08 81.5926 152.672 81.5926 153.448V157H80.7646V153.256C80.7646 152.544 80.5926 152 80.2486 151.624C79.9046 151.248 79.4326 151.06 78.8326 151.06C78.2166 151.06 77.7246 151.264 77.3566 151.672C76.9886 152.08 76.8046 152.672 76.8046 153.448V157H75.9646V150.448H76.8046V151.576C77.0126 151.168 77.3086 150.86 77.6926 150.652C78.0766 150.436 78.5046 150.328 78.9766 150.328C79.5446 150.328 80.0406 150.464 80.4646 150.736C80.8966 151.008 81.2086 151.408 81.4006 151.936C81.5766 151.416 81.8766 151.02 82.3006 150.748C82.7326 150.468 83.2206 150.328 83.7646 150.328ZM87.8501 153.712C87.8501 153.04 87.9821 152.452 88.2461 151.948C88.5181 151.436 88.8901 151.044 89.3621 150.772C89.8421 150.492 90.3821 150.352 90.9821 150.352C91.6061 150.352 92.1421 150.496 92.5901 150.784C93.0461 151.072 93.3741 151.44 93.5741 151.888V150.448H94.4141V157H93.5741V155.548C93.3661 155.996 93.0341 156.368 92.5781 156.664C92.1301 156.952 91.5941 157.096 90.9701 157.096C90.3781 157.096 89.8421 156.956 89.3621 156.676C88.8901 156.396 88.5181 156 88.2461 155.488C87.9821 154.976 87.8501 154.384 87.8501 153.712ZM93.5741 153.724C93.5741 153.196 93.4661 152.732 93.2501 152.332C93.0341 151.932 92.7381 151.624 92.3621 151.408C91.9941 151.192 91.5861 151.084 91.1381 151.084C90.6741 151.084 90.2581 151.188 89.8901 151.396C89.5221 151.604 89.2301 151.908 89.0141 152.308C88.8061 152.7 88.7021 153.168 88.7021 153.712C88.7021 154.248 88.8061 154.72 89.0141 155.128C89.2301 155.528 89.5221 155.836 89.8901 156.052C90.2581 156.26 90.6741 156.364 91.1381 156.364C91.5861 156.364 91.9941 156.256 92.3621 156.04C92.7381 155.824 93.0341 155.516 93.2501 155.116C93.4661 154.716 93.5741 154.252 93.5741 153.724ZM99.2407 153.724C99.2407 153.044 99.3767 152.452 99.6487 151.948C99.9207 151.436 100.297 151.044 100.777 150.772C101.257 150.492 101.805 150.352 102.421 150.352C103.229 150.352 103.893 150.552 104.413 150.952C104.941 151.352 105.281 151.896 105.433 152.584H104.533C104.421 152.112 104.177 151.744 103.801 151.48C103.433 151.208 102.973 151.072 102.421 151.072C101.981 151.072 101.585 151.172 101.233 151.372C100.881 151.572 100.601 151.872 100.393 152.272C100.193 152.664 100.093 153.148 100.093 153.724C100.093 154.3 100.193 154.788 100.393 155.188C100.601 155.588 100.881 155.888 101.233 156.088C101.585 156.288 101.981 156.388 102.421 156.388C102.973 156.388 103.433 156.256 103.801 155.992C104.177 155.72 104.421 155.344 104.533 154.864H105.433C105.281 155.536 104.941 156.076 104.413 156.484C103.885 156.892 103.221 157.096 102.421 157.096C101.805 157.096 101.257 156.96 100.777 156.688C100.297 156.408 99.9207 156.016 99.6487 155.512C99.3767 155 99.2407 154.404 99.2407 153.724ZM106.6 153.712C106.6 153.04 106.732 152.452 106.996 151.948C107.268 151.436 107.64 151.044 108.112 150.772C108.592 150.492 109.132 150.352 109.732 150.352C110.356 150.352 110.892 150.496 111.34 150.784C111.796 151.072 112.124 151.44 112.324 151.888V150.448H113.164V157H112.324V155.548C112.116 155.996 111.784 156.368 111.328 156.664C110.88 156.952 110.344 157.096 109.72 157.096C109.128 157.096 108.592 156.956 108.112 156.676C107.64 156.396 107.268 156 106.996 155.488C106.732 154.976 106.6 154.384 106.6 153.712ZM112.324 153.724C112.324 153.196 112.216 152.732 112 152.332C111.784 151.932 111.488 151.624 111.112 151.408C110.744 151.192 110.336 151.084 109.888 151.084C109.424 151.084 109.008 151.188 108.64 151.396C108.272 151.604 107.98 151.908 107.764 152.308C107.556 152.7 107.452 153.168 107.452 153.712C107.452 154.248 107.556 154.72 107.764 155.128C107.98 155.528 108.272 155.836 108.64 156.052C109.008 156.26 109.424 156.364 109.888 156.364C110.336 156.364 110.744 156.256 111.112 156.04C111.488 155.824 111.784 155.516 112 155.116C112.216 154.716 112.324 154.252 112.324 153.724ZM114.698 153.712C114.698 153.04 114.834 152.452 115.106 151.948C115.378 151.436 115.75 151.044 116.222 150.772C116.702 150.492 117.242 150.352 117.842 150.352C118.418 150.352 118.938 150.492 119.402 150.772C119.866 151.052 120.206 151.416 120.422 151.864V148.12H121.262V157H120.422V155.536C120.222 155.992 119.894 156.368 119.438 156.664C118.982 156.952 118.446 157.096 117.83 157.096C117.23 157.096 116.69 156.956 116.21 156.676C115.738 156.396 115.366 156 115.094 155.488C114.83 154.976 114.698 154.384 114.698 153.712ZM120.422 153.724C120.422 153.196 120.314 152.732 120.098 152.332C119.882 151.932 119.586 151.624 119.21 151.408C118.842 151.192 118.434 151.084 117.986 151.084C117.522 151.084 117.106 151.188 116.738 151.396C116.37 151.604 116.078 151.908 115.862 152.308C115.654 152.7 115.55 153.168 115.55 153.712C115.55 154.248 115.654 154.72 115.862 155.128C116.078 155.528 116.37 155.836 116.738 156.052C117.106 156.26 117.522 156.364 117.986 156.364C118.434 156.364 118.842 156.256 119.21 156.04C119.586 155.824 119.882 155.516 120.098 155.116C120.314 154.716 120.422 154.252 120.422 153.724ZM122.795 153.712C122.795 153.04 122.927 152.452 123.191 151.948C123.463 151.436 123.835 151.044 124.307 150.772C124.787 150.492 125.327 150.352 125.927 150.352C126.551 150.352 127.087 150.496 127.535 150.784C127.991 151.072 128.319 151.44 128.519 151.888V150.448H129.359V157H128.519V155.548C128.311 155.996 127.979 156.368 127.523 156.664C127.075 156.952 126.539 157.096 125.915 157.096C125.323 157.096 124.787 156.956 124.307 156.676C123.835 156.396 123.463 156 123.191 155.488C122.927 154.976 122.795 154.384 122.795 153.712ZM128.519 153.724C128.519 153.196 128.411 152.732 128.195 152.332C127.979 151.932 127.683 151.624 127.307 151.408C126.939 151.192 126.531 151.084 126.083 151.084C125.619 151.084 125.203 151.188 124.835 151.396C124.467 151.604 124.175 151.908 123.959 152.308C123.751 152.7 123.647 153.168 123.647 153.712C123.647 154.248 123.751 154.72 123.959 155.128C124.175 155.528 124.467 155.836 124.835 156.052C125.203 156.26 125.619 156.364 126.083 156.364C126.531 156.364 126.939 156.256 127.307 156.04C127.683 155.824 127.979 155.516 128.195 155.116C128.411 154.716 128.519 154.252 128.519 153.724ZM133.533 157.096C132.781 157.096 132.165 156.924 131.685 156.58C131.213 156.228 130.949 155.752 130.893 155.152H131.757C131.797 155.52 131.969 155.82 132.273 156.052C132.585 156.276 133.001 156.388 133.521 156.388C133.977 156.388 134.333 156.28 134.589 156.064C134.853 155.848 134.985 155.58 134.985 155.26C134.985 155.036 134.913 154.852 134.769 154.708C134.625 154.564 134.441 154.452 134.217 154.372C134.001 154.284 133.705 154.192 133.329 154.096C132.841 153.968 132.445 153.84 132.141 153.712C131.837 153.584 131.577 153.396 131.361 153.148C131.153 152.892 131.049 152.552 131.049 152.128C131.049 151.808 131.145 151.512 131.337 151.24C131.529 150.968 131.801 150.752 132.153 150.592C132.505 150.432 132.905 150.352 133.353 150.352C134.057 150.352 134.625 150.532 135.057 150.892C135.489 151.244 135.721 151.732 135.753 152.356H134.913C134.889 151.972 134.737 151.664 134.457 151.432C134.185 151.192 133.809 151.072 133.329 151.072C132.905 151.072 132.561 151.172 132.297 151.372C132.033 151.572 131.901 151.82 131.901 152.116C131.901 152.372 131.977 152.584 132.129 152.752C132.289 152.912 132.485 153.04 132.717 153.136C132.949 153.224 133.261 153.324 133.653 153.436C134.125 153.564 134.501 153.688 134.781 153.808C135.061 153.928 135.301 154.104 135.501 154.336C135.701 154.568 135.805 154.876 135.813 155.26C135.813 155.612 135.717 155.928 135.525 156.208C135.333 156.48 135.065 156.696 134.721 156.856C134.377 157.016 133.981 157.096 133.533 157.096ZM138.486 151.156V155.224C138.486 155.624 138.562 155.9 138.714 156.052C138.866 156.204 139.134 156.28 139.518 156.28H140.286V157H139.386C138.794 157 138.354 156.864 138.066 156.592C137.778 156.312 137.634 155.856 137.634 155.224V151.156H136.722V150.448H137.634V148.804H138.486V150.448H140.286V151.156H138.486ZM142.512 151.612C142.696 151.204 142.976 150.888 143.352 150.664C143.736 150.44 144.204 150.328 144.756 150.328V151.204H144.528C143.92 151.204 143.432 151.368 143.064 151.696C142.696 152.024 142.512 152.572 142.512 153.34V157H141.672V150.448H142.512V151.612ZM148.887 157.096C148.271 157.096 147.715 156.96 147.219 156.688C146.731 156.408 146.343 156.016 146.055 155.512C145.775 155 145.635 154.404 145.635 153.724C145.635 153.044 145.779 152.452 146.067 151.948C146.355 151.436 146.747 151.044 147.243 150.772C147.739 150.492 148.295 150.352 148.911 150.352C149.527 150.352 150.083 150.492 150.579 150.772C151.083 151.044 151.475 151.436 151.755 151.948C152.043 152.452 152.187 153.044 152.187 153.724C152.187 154.396 152.043 154.988 151.755 155.5C151.467 156.012 151.071 156.408 150.567 156.688C150.063 156.96 149.503 157.096 148.887 157.096ZM148.887 156.364C149.319 156.364 149.719 156.268 150.087 156.076C150.455 155.876 150.751 155.58 150.975 155.188C151.207 154.788 151.323 154.3 151.323 153.724C151.323 153.148 151.211 152.664 150.987 152.272C150.763 151.872 150.467 151.576 150.099 151.384C149.731 151.184 149.331 151.084 148.899 151.084C148.467 151.084 148.067 151.184 147.699 151.384C147.331 151.576 147.035 151.872 146.811 152.272C146.595 152.664 146.487 153.148 146.487 153.724C146.487 154.3 146.595 154.788 146.811 155.188C147.035 155.58 147.327 155.876 147.687 156.076C148.055 156.268 148.455 156.364 148.887 156.364ZM159.394 150.448V157H158.554V155.848C158.362 156.256 158.066 156.568 157.666 156.784C157.266 157 156.818 157.108 156.322 157.108C155.538 157.108 154.898 156.868 154.402 156.388C153.906 155.9 153.658 155.196 153.658 154.276V150.448H154.486V154.18C154.486 154.892 154.662 155.436 155.014 155.812C155.374 156.188 155.862 156.376 156.478 156.376C157.11 156.376 157.614 156.176 157.99 155.776C158.366 155.376 158.554 154.788 158.554 154.012V150.448H159.394ZM164.221 153.712C164.221 153.04 164.353 152.452 164.617 151.948C164.889 151.436 165.261 151.044 165.733 150.772C166.213 150.492 166.753 150.352 167.353 150.352C167.977 150.352 168.513 150.496 168.961 150.784C169.417 151.072 169.745 151.44 169.945 151.888V150.448H170.785V157H169.945V155.548C169.737 155.996 169.405 156.368 168.949 156.664C168.501 156.952 167.965 157.096 167.341 157.096C166.749 157.096 166.213 156.956 165.733 156.676C165.261 156.396 164.889 156 164.617 155.488C164.353 154.976 164.221 154.384 164.221 153.712ZM169.945 153.724C169.945 153.196 169.837 152.732 169.621 152.332C169.405 151.932 169.109 151.624 168.733 151.408C168.365 151.192 167.957 151.084 167.509 151.084C167.045 151.084 166.629 151.188 166.261 151.396C165.893 151.604 165.601 151.908 165.385 152.308C165.177 152.7 165.073 153.168 165.073 153.712C165.073 154.248 165.177 154.72 165.385 155.128C165.601 155.528 165.893 155.836 166.261 156.052C166.629 156.26 167.045 156.364 167.509 156.364C167.957 156.364 168.365 156.256 168.733 156.04C169.109 155.824 169.405 155.516 169.621 155.116C169.837 154.716 169.945 154.252 169.945 153.724ZM40.775 169.888C40.983 169.448 41.311 169.084 41.759 168.796C42.215 168.5 42.755 168.352 43.379 168.352C43.971 168.352 44.503 168.492 44.975 168.772C45.455 169.044 45.827 169.436 46.091 169.948C46.363 170.452 46.499 171.04 46.499 171.712C46.499 172.384 46.363 172.976 46.091 173.488C45.827 174 45.455 174.396 44.975 174.676C44.503 174.956 43.971 175.096 43.379 175.096C42.763 175.096 42.227 174.952 41.771 174.664C41.315 174.368 40.983 174 40.775 173.56V178.096H39.947V168.448H40.775V169.888ZM45.647 171.712C45.647 171.168 45.539 170.7 45.323 170.308C45.115 169.908 44.827 169.604 44.459 169.396C44.091 169.188 43.675 169.084 43.211 169.084C42.763 169.084 42.351 169.192 41.975 169.408C41.607 169.624 41.315 169.932 41.099 170.332C40.883 170.732 40.775 171.196 40.775 171.724C40.775 172.252 40.883 172.716 41.099 173.116C41.315 173.516 41.607 173.824 41.975 174.04C42.351 174.256 42.763 174.364 43.211 174.364C43.675 174.364 44.091 174.26 44.459 174.052C44.827 173.836 45.115 173.528 45.323 173.128C45.539 172.72 45.647 172.248 45.647 171.712ZM53.9727 171.388C53.9727 171.676 53.9647 171.896 53.9487 172.048H48.5127C48.5367 172.544 48.6567 172.968 48.8727 173.32C49.0887 173.672 49.3727 173.94 49.7247 174.124C50.0767 174.3 50.4607 174.388 50.8767 174.388C51.4207 174.388 51.8767 174.256 52.2447 173.992C52.6207 173.728 52.8687 173.372 52.9887 172.924H53.8767C53.7167 173.564 53.3727 174.088 52.8447 174.496C52.3247 174.896 51.6687 175.096 50.8767 175.096C50.2607 175.096 49.7087 174.96 49.2207 174.688C48.7327 174.408 48.3487 174.016 48.0687 173.512C47.7967 173 47.6607 172.404 47.6607 171.724C47.6607 171.044 47.7967 170.448 48.0687 169.936C48.3407 169.424 48.7207 169.032 49.2087 168.76C49.6967 168.488 50.2527 168.352 50.8767 168.352C51.5007 168.352 52.0447 168.488 52.5087 168.76C52.9807 169.032 53.3407 169.4 53.5887 169.864C53.8447 170.32 53.9727 170.828 53.9727 171.388ZM53.1207 171.364C53.1287 170.876 53.0287 170.46 52.8207 170.116C52.6207 169.772 52.3447 169.512 51.9927 169.336C51.6407 169.16 51.2567 169.072 50.8407 169.072C50.2167 169.072 49.6847 169.272 49.2447 169.672C48.8047 170.072 48.5607 170.636 48.5127 171.364H53.1207ZM57.7655 175.096C57.0135 175.096 56.3975 174.924 55.9175 174.58C55.4455 174.228 55.1815 173.752 55.1255 173.152H55.9895C56.0295 173.52 56.2015 173.82 56.5055 174.052C56.8175 174.276 57.2335 174.388 57.7535 174.388C58.2095 174.388 58.5655 174.28 58.8215 174.064C59.0855 173.848 59.2175 173.58 59.2175 173.26C59.2175 173.036 59.1455 172.852 59.0015 172.708C58.8575 172.564 58.6735 172.452 58.4495 172.372C58.2335 172.284 57.9375 172.192 57.5615 172.096C57.0735 171.968 56.6775 171.84 56.3735 171.712C56.0695 171.584 55.8095 171.396 55.5935 171.148C55.3855 170.892 55.2815 170.552 55.2815 170.128C55.2815 169.808 55.3775 169.512 55.5695 169.24C55.7615 168.968 56.0335 168.752 56.3855 168.592C56.7375 168.432 57.1375 168.352 57.5855 168.352C58.2895 168.352 58.8575 168.532 59.2895 168.892C59.7215 169.244 59.9535 169.732 59.9855 170.356H59.1455C59.1215 169.972 58.9695 169.664 58.6895 169.432C58.4175 169.192 58.0415 169.072 57.5615 169.072C57.1375 169.072 56.7935 169.172 56.5295 169.372C56.2655 169.572 56.1335 169.82 56.1335 170.116C56.1335 170.372 56.2095 170.584 56.3615 170.752C56.5215 170.912 56.7175 171.04 56.9495 171.136C57.1815 171.224 57.4935 171.324 57.8855 171.436C58.3575 171.564 58.7335 171.688 59.0135 171.808C59.2935 171.928 59.5335 172.104 59.7335 172.336C59.9335 172.568 60.0375 172.876 60.0455 173.26C60.0455 173.612 59.9495 173.928 59.7575 174.208C59.5655 174.48 59.2975 174.696 58.9535 174.856C58.6095 175.016 58.2135 175.096 57.7655 175.096ZM63.8827 175.096C63.1307 175.096 62.5147 174.924 62.0347 174.58C61.5627 174.228 61.2987 173.752 61.2427 173.152H62.1067C62.1467 173.52 62.3187 173.82 62.6227 174.052C62.9347 174.276 63.3507 174.388 63.8707 174.388C64.3267 174.388 64.6827 174.28 64.9387 174.064C65.2027 173.848 65.3347 173.58 65.3347 173.26C65.3347 173.036 65.2627 172.852 65.1187 172.708C64.9747 172.564 64.7907 172.452 64.5667 172.372C64.3507 172.284 64.0547 172.192 63.6787 172.096C63.1907 171.968 62.7947 171.84 62.4907 171.712C62.1867 171.584 61.9267 171.396 61.7107 171.148C61.5027 170.892 61.3987 170.552 61.3987 170.128C61.3987 169.808 61.4947 169.512 61.6867 169.24C61.8787 168.968 62.1507 168.752 62.5027 168.592C62.8547 168.432 63.2547 168.352 63.7027 168.352C64.4067 168.352 64.9747 168.532 65.4067 168.892C65.8387 169.244 66.0707 169.732 66.1027 170.356H65.2627C65.2387 169.972 65.0867 169.664 64.8067 169.432C64.5347 169.192 64.1587 169.072 63.6787 169.072C63.2547 169.072 62.9107 169.172 62.6467 169.372C62.3827 169.572 62.2507 169.82 62.2507 170.116C62.2507 170.372 62.3267 170.584 62.4787 170.752C62.6387 170.912 62.8347 171.04 63.0667 171.136C63.2987 171.224 63.6107 171.324 64.0027 171.436C64.4747 171.564 64.8507 171.688 65.1307 171.808C65.4107 171.928 65.6507 172.104 65.8507 172.336C66.0507 172.568 66.1547 172.876 66.1627 173.26C66.1627 173.612 66.0667 173.928 65.8747 174.208C65.6827 174.48 65.4147 174.696 65.0707 174.856C64.7267 175.016 64.3307 175.096 63.8827 175.096ZM70.6119 175.096C69.9959 175.096 69.4399 174.96 68.9439 174.688C68.4559 174.408 68.0679 174.016 67.7799 173.512C67.4999 173 67.3599 172.404 67.3599 171.724C67.3599 171.044 67.5039 170.452 67.7919 169.948C68.0799 169.436 68.4719 169.044 68.9679 168.772C69.4639 168.492 70.0199 168.352 70.6359 168.352C71.2519 168.352 71.8079 168.492 72.3039 168.772C72.8079 169.044 73.1999 169.436 73.4799 169.948C73.7679 170.452 73.9119 171.044 73.9119 171.724C73.9119 172.396 73.7679 172.988 73.4799 173.5C73.1919 174.012 72.7959 174.408 72.2919 174.688C71.7879 174.96 71.2279 175.096 70.6119 175.096ZM70.6119 174.364C71.0439 174.364 71.4439 174.268 71.8119 174.076C72.1799 173.876 72.4759 173.58 72.6999 173.188C72.9319 172.788 73.0479 172.3 73.0479 171.724C73.0479 171.148 72.9359 170.664 72.7119 170.272C72.4879 169.872 72.1919 169.576 71.8239 169.384C71.4559 169.184 71.0559 169.084 70.6239 169.084C70.1919 169.084 69.7919 169.184 69.4239 169.384C69.0559 169.576 68.7599 169.872 68.5359 170.272C68.3199 170.664 68.2119 171.148 68.2119 171.724C68.2119 172.3 68.3199 172.788 68.5359 173.188C68.7599 173.58 69.0519 173.876 69.4119 174.076C69.7799 174.268 70.1799 174.364 70.6119 174.364ZM75.0591 171.712C75.0591 171.04 75.1911 170.452 75.4551 169.948C75.7271 169.436 76.0991 169.044 76.5711 168.772C77.0511 168.492 77.5911 168.352 78.1911 168.352C78.8151 168.352 79.3511 168.496 79.7991 168.784C80.2551 169.072 80.5831 169.44 80.7831 169.888V168.448H81.6231V175H80.7831V173.548C80.5751 173.996 80.2431 174.368 79.7871 174.664C79.3391 174.952 78.8031 175.096 78.1791 175.096C77.5871 175.096 77.0511 174.956 76.5711 174.676C76.0991 174.396 75.7271 174 75.4551 173.488C75.1911 172.976 75.0591 172.384 75.0591 171.712ZM80.7831 171.724C80.7831 171.196 80.6751 170.732 80.4591 170.332C80.2431 169.932 79.9471 169.624 79.5711 169.408C79.2031 169.192 78.7951 169.084 78.3471 169.084C77.8831 169.084 77.4671 169.188 77.0991 169.396C76.7311 169.604 76.4391 169.908 76.2231 170.308C76.0151 170.7 75.9111 171.168 75.9111 171.712C75.9111 172.248 76.0151 172.72 76.2231 173.128C76.4391 173.528 76.7311 173.836 77.0991 174.052C77.4671 174.26 77.8831 174.364 78.3471 174.364C78.7951 174.364 79.2031 174.256 79.5711 174.04C79.9471 173.824 80.2431 173.516 80.4591 173.116C80.6751 172.716 80.7831 172.252 80.7831 171.724ZM86.4497 171.724C86.4497 171.044 86.5857 170.452 86.8577 169.948C87.1297 169.436 87.5057 169.044 87.9857 168.772C88.4657 168.492 89.0137 168.352 89.6297 168.352C90.4377 168.352 91.1017 168.552 91.6217 168.952C92.1497 169.352 92.4897 169.896 92.6417 170.584H91.7417C91.6297 170.112 91.3857 169.744 91.0097 169.48C90.6417 169.208 90.1817 169.072 89.6297 169.072C89.1897 169.072 88.7937 169.172 88.4417 169.372C88.0897 169.572 87.8097 169.872 87.6017 170.272C87.4017 170.664 87.3017 171.148 87.3017 171.724C87.3017 172.3 87.4017 172.788 87.6017 173.188C87.8097 173.588 88.0897 173.888 88.4417 174.088C88.7937 174.288 89.1897 174.388 89.6297 174.388C90.1817 174.388 90.6417 174.256 91.0097 173.992C91.3857 173.72 91.6297 173.344 91.7417 172.864H92.6417C92.4897 173.536 92.1497 174.076 91.6217 174.484C91.0937 174.892 90.4297 175.096 89.6297 175.096C89.0137 175.096 88.4657 174.96 87.9857 174.688C87.5057 174.408 87.1297 174.016 86.8577 173.512C86.5857 173 86.4497 172.404 86.4497 171.724ZM97.0611 175.096C96.4451 175.096 95.8891 174.96 95.3931 174.688C94.9051 174.408 94.5171 174.016 94.2291 173.512C93.9491 173 93.8091 172.404 93.8091 171.724C93.8091 171.044 93.9531 170.452 94.2411 169.948C94.5291 169.436 94.9211 169.044 95.4171 168.772C95.9131 168.492 96.4691 168.352 97.0851 168.352C97.7011 168.352 98.2571 168.492 98.7531 168.772C99.2571 169.044 99.6491 169.436 99.9291 169.948C100.217 170.452 100.361 171.044 100.361 171.724C100.361 172.396 100.217 172.988 99.9291 173.5C99.6411 174.012 99.2451 174.408 98.7411 174.688C98.2371 174.96 97.6771 175.096 97.0611 175.096ZM97.0611 174.364C97.4931 174.364 97.8931 174.268 98.2611 174.076C98.6291 173.876 98.9251 173.58 99.1491 173.188C99.3811 172.788 99.4971 172.3 99.4971 171.724C99.4971 171.148 99.3851 170.664 99.1611 170.272C98.9371 169.872 98.6411 169.576 98.2731 169.384C97.9051 169.184 97.5051 169.084 97.0731 169.084C96.6411 169.084 96.2411 169.184 95.8731 169.384C95.5051 169.576 95.2091 169.872 94.9851 170.272C94.7691 170.664 94.6611 171.148 94.6611 171.724C94.6611 172.3 94.7691 172.788 94.9851 173.188C95.2091 173.58 95.5011 173.876 95.8611 174.076C96.2291 174.268 96.6291 174.364 97.0611 174.364ZM109.692 168.328C110.46 168.328 111.084 168.572 111.564 169.06C112.052 169.54 112.296 170.24 112.296 171.16V175H111.468V171.256C111.468 170.544 111.296 170 110.952 169.624C110.608 169.248 110.14 169.06 109.548 169.06C108.932 169.06 108.44 169.264 108.072 169.672C107.704 170.08 107.52 170.672 107.52 171.448V175H106.692V171.256C106.692 170.544 106.52 170 106.176 169.624C105.832 169.248 105.36 169.06 104.76 169.06C104.144 169.06 103.652 169.264 103.284 169.672C102.916 170.08 102.732 170.672 102.732 171.448V175H101.892V168.448H102.732V169.576C102.94 169.168 103.236 168.86 103.62 168.652C104.004 168.436 104.432 168.328 104.904 168.328C105.472 168.328 105.968 168.464 106.392 168.736C106.824 169.008 107.136 169.408 107.328 169.936C107.504 169.416 107.804 169.02 108.228 168.748C108.66 168.468 109.148 168.328 109.692 168.328ZM119.711 175.096C118.959 175.096 118.343 174.924 117.863 174.58C117.391 174.228 117.127 173.752 117.071 173.152H117.935C117.975 173.52 118.147 173.82 118.451 174.052C118.763 174.276 119.179 174.388 119.699 174.388C120.155 174.388 120.511 174.28 120.767 174.064C121.031 173.848 121.163 173.58 121.163 173.26C121.163 173.036 121.091 172.852 120.947 172.708C120.803 172.564 120.619 172.452 120.395 172.372C120.179 172.284 119.883 172.192 119.507 172.096C119.019 171.968 118.623 171.84 118.319 171.712C118.015 171.584 117.755 171.396 117.539 171.148C117.331 170.892 117.227 170.552 117.227 170.128C117.227 169.808 117.323 169.512 117.515 169.24C117.707 168.968 117.979 168.752 118.331 168.592C118.683 168.432 119.083 168.352 119.531 168.352C120.235 168.352 120.803 168.532 121.235 168.892C121.667 169.244 121.899 169.732 121.931 170.356H121.091C121.067 169.972 120.915 169.664 120.635 169.432C120.363 169.192 119.987 169.072 119.507 169.072C119.083 169.072 118.739 169.172 118.475 169.372C118.211 169.572 118.079 169.82 118.079 170.116C118.079 170.372 118.155 170.584 118.307 170.752C118.467 170.912 118.663 171.04 118.895 171.136C119.127 171.224 119.439 171.324 119.831 171.436C120.303 171.564 120.679 171.688 120.959 171.808C121.239 171.928 121.479 172.104 121.679 172.336C121.879 172.568 121.983 172.876 121.991 173.26C121.991 173.612 121.895 173.928 121.703 174.208C121.511 174.48 121.243 174.696 120.899 174.856C120.555 175.016 120.159 175.096 119.711 175.096ZM129.248 168.448V175H128.408V173.848C128.216 174.256 127.92 174.568 127.52 174.784C127.12 175 126.672 175.108 126.176 175.108C125.392 175.108 124.752 174.868 124.256 174.388C123.76 173.9 123.512 173.196 123.512 172.276V168.448H124.34V172.18C124.34 172.892 124.516 173.436 124.868 173.812C125.228 174.188 125.716 174.376 126.332 174.376C126.964 174.376 127.468 174.176 127.844 173.776C128.22 173.376 128.408 172.788 128.408 172.012V168.448H129.248ZM130.782 171.724C130.782 171.044 130.918 170.452 131.19 169.948C131.462 169.436 131.838 169.044 132.318 168.772C132.798 168.492 133.346 168.352 133.962 168.352C134.77 168.352 135.434 168.552 135.954 168.952C136.482 169.352 136.822 169.896 136.974 170.584H136.074C135.962 170.112 135.718 169.744 135.342 169.48C134.974 169.208 134.514 169.072 133.962 169.072C133.522 169.072 133.126 169.172 132.774 169.372C132.422 169.572 132.142 169.872 131.934 170.272C131.734 170.664 131.634 171.148 131.634 171.724C131.634 172.3 131.734 172.788 131.934 173.188C132.142 173.588 132.422 173.888 132.774 174.088C133.126 174.288 133.522 174.388 133.962 174.388C134.514 174.388 134.974 174.256 135.342 173.992C135.718 173.72 135.962 173.344 136.074 172.864H136.974C136.822 173.536 136.482 174.076 135.954 174.484C135.426 174.892 134.762 175.096 133.962 175.096C133.346 175.096 132.798 174.96 132.318 174.688C131.838 174.408 131.462 174.016 131.19 173.512C130.918 173 130.782 172.404 130.782 171.724ZM144.453 171.388C144.453 171.676 144.445 171.896 144.429 172.048H138.993C139.017 172.544 139.137 172.968 139.353 173.32C139.569 173.672 139.853 173.94 140.205 174.124C140.557 174.3 140.941 174.388 141.357 174.388C141.901 174.388 142.357 174.256 142.725 173.992C143.101 173.728 143.349 173.372 143.469 172.924H144.357C144.197 173.564 143.853 174.088 143.325 174.496C142.805 174.896 142.149 175.096 141.357 175.096C140.741 175.096 140.189 174.96 139.701 174.688C139.213 174.408 138.829 174.016 138.549 173.512C138.277 173 138.141 172.404 138.141 171.724C138.141 171.044 138.277 170.448 138.549 169.936C138.821 169.424 139.201 169.032 139.689 168.76C140.177 168.488 140.733 168.352 141.357 168.352C141.981 168.352 142.525 168.488 142.989 168.76C143.461 169.032 143.821 169.4 144.069 169.864C144.325 170.32 144.453 170.828 144.453 171.388ZM143.601 171.364C143.609 170.876 143.509 170.46 143.301 170.116C143.101 169.772 142.825 169.512 142.473 169.336C142.121 169.16 141.737 169.072 141.321 169.072C140.697 169.072 140.165 169.272 139.725 169.672C139.285 170.072 139.041 170.636 138.993 171.364H143.601ZM148.246 175.096C147.494 175.096 146.878 174.924 146.398 174.58C145.926 174.228 145.662 173.752 145.606 173.152H146.47C146.51 173.52 146.682 173.82 146.986 174.052C147.298 174.276 147.714 174.388 148.234 174.388C148.69 174.388 149.046 174.28 149.302 174.064C149.566 173.848 149.698 173.58 149.698 173.26C149.698 173.036 149.626 172.852 149.482 172.708C149.338 172.564 149.154 172.452 148.93 172.372C148.714 172.284 148.418 172.192 148.042 172.096C147.554 171.968 147.158 171.84 146.854 171.712C146.55 171.584 146.29 171.396 146.074 171.148C145.866 170.892 145.762 170.552 145.762 170.128C145.762 169.808 145.858 169.512 146.05 169.24C146.242 168.968 146.514 168.752 146.866 168.592C147.218 168.432 147.618 168.352 148.066 168.352C148.77 168.352 149.338 168.532 149.77 168.892C150.202 169.244 150.434 169.732 150.466 170.356H149.626C149.602 169.972 149.45 169.664 149.17 169.432C148.898 169.192 148.522 169.072 148.042 169.072C147.618 169.072 147.274 169.172 147.01 169.372C146.746 169.572 146.614 169.82 146.614 170.116C146.614 170.372 146.69 170.584 146.842 170.752C147.002 170.912 147.198 171.04 147.43 171.136C147.662 171.224 147.974 171.324 148.366 171.436C148.838 171.564 149.214 171.688 149.494 171.808C149.774 171.928 150.014 172.104 150.214 172.336C150.414 172.568 150.518 172.876 150.526 173.26C150.526 173.612 150.43 173.928 150.238 174.208C150.046 174.48 149.778 174.696 149.434 174.856C149.09 175.016 148.694 175.096 148.246 175.096ZM154.363 175.096C153.611 175.096 152.995 174.924 152.515 174.58C152.043 174.228 151.779 173.752 151.723 173.152H152.587C152.627 173.52 152.799 173.82 153.103 174.052C153.415 174.276 153.831 174.388 154.351 174.388C154.807 174.388 155.163 174.28 155.419 174.064C155.683 173.848 155.815 173.58 155.815 173.26C155.815 173.036 155.743 172.852 155.599 172.708C155.455 172.564 155.271 172.452 155.047 172.372C154.831 172.284 154.535 172.192 154.159 172.096C153.671 171.968 153.275 171.84 152.971 171.712C152.667 171.584 152.407 171.396 152.191 171.148C151.983 170.892 151.879 170.552 151.879 170.128C151.879 169.808 151.975 169.512 152.167 169.24C152.359 168.968 152.631 168.752 152.983 168.592C153.335 168.432 153.735 168.352 154.183 168.352C154.887 168.352 155.455 168.532 155.887 168.892C156.319 169.244 156.551 169.732 156.583 170.356H155.743C155.719 169.972 155.567 169.664 155.287 169.432C155.015 169.192 154.639 169.072 154.159 169.072C153.735 169.072 153.391 169.172 153.127 169.372C152.863 169.572 152.731 169.82 152.731 170.116C152.731 170.372 152.807 170.584 152.959 170.752C153.119 170.912 153.315 171.04 153.547 171.136C153.779 171.224 154.091 171.324 154.483 171.436C154.955 171.564 155.331 171.688 155.611 171.808C155.891 171.928 156.131 172.104 156.331 172.336C156.531 172.568 156.635 172.876 156.643 173.26C156.643 173.612 156.547 173.928 156.355 174.208C156.163 174.48 155.895 174.696 155.551 174.856C155.207 175.016 154.811 175.096 154.363 175.096ZM161.092 175.096C160.476 175.096 159.92 174.96 159.424 174.688C158.936 174.408 158.548 174.016 158.26 173.512C157.98 173 157.84 172.404 157.84 171.724C157.84 171.044 157.984 170.452 158.272 169.948C158.56 169.436 158.952 169.044 159.448 168.772C159.944 168.492 160.5 168.352 161.116 168.352C161.732 168.352 162.288 168.492 162.784 168.772C163.288 169.044 163.68 169.436 163.96 169.948C164.248 170.452 164.392 171.044 164.392 171.724C164.392 172.396 164.248 172.988 163.96 173.5C163.672 174.012 163.276 174.408 162.772 174.688C162.268 174.96 161.708 175.096 161.092 175.096ZM161.092 174.364C161.524 174.364 161.924 174.268 162.292 174.076C162.66 173.876 162.956 173.58 163.18 173.188C163.412 172.788 163.528 172.3 163.528 171.724C163.528 171.148 163.416 170.664 163.192 170.272C162.968 169.872 162.672 169.576 162.304 169.384C161.936 169.184 161.536 169.084 161.104 169.084C160.672 169.084 160.272 169.184 159.904 169.384C159.536 169.576 159.24 169.872 159.016 170.272C158.8 170.664 158.692 171.148 158.692 171.724C158.692 172.3 158.8 172.788 159.016 173.188C159.24 173.58 159.532 173.876 159.892 174.076C160.26 174.268 160.66 174.364 161.092 174.364ZM167.052 166.612L166.944 172.78H166.236L166.14 166.612H167.052ZM166.632 175.06C166.456 175.06 166.308 175 166.188 174.88C166.076 174.76 166.02 174.612 166.02 174.436C166.02 174.26 166.076 174.116 166.188 174.004C166.308 173.884 166.456 173.824 166.632 173.824C166.8 173.824 166.94 173.884 167.052 174.004C167.172 174.116 167.232 174.26 167.232 174.436C167.232 174.612 167.172 174.76 167.052 174.88C166.94 175 166.8 175.06 166.632 175.06Z" fill="#6F6F6F"/>
<path d="M103.5 77C108.766 77 113.725 75.9903 118.376 73.9715C123.027 71.9777 127.112 69.2076 130.631 65.6622C134.174 62.1169 136.955 58.0301 138.973 53.4014C140.991 48.7482 142 43.7749 142 38.4815C142 33.2128 140.991 28.2641 138.973 23.6355C136.955 18.9822 134.174 14.883 130.631 11.3377C127.112 7.7923 123.015 5.02252 118.339 3.02831C113.688 1.00943 108.729 0 103.463 0C98.1969 0 93.2383 1.00943 88.5873 3.02831C83.9362 5.02252 79.8389 7.7923 76.2953 11.3377C72.7763 14.883 70.0078 18.9822 67.9899 23.6355C65.9966 28.2641 65 33.2128 65 38.4815C65 43.7749 65.9966 48.7482 67.9899 53.4014C70.0078 58.0301 72.7886 62.1169 76.3322 65.6622C79.8758 69.2076 83.9731 71.9777 88.6242 73.9715C93.2752 75.9903 98.2338 77 103.5 77ZM99.4027 56.799C98.6398 56.799 97.9508 56.6388 97.3356 56.3188C96.7203 55.9742 96.1421 55.4573 95.6007 54.7677L86.7047 44.0581C86.3602 43.5902 86.0895 43.1348 85.8926 42.6916C85.7204 42.2238 85.6342 41.7437 85.6342 41.2513C85.6342 40.2172 85.9911 39.3432 86.7047 38.6293C87.4184 37.8906 88.292 37.5213 89.3255 37.5213C89.9407 37.5213 90.4944 37.6568 90.9866 37.9276C91.4788 38.1738 91.9709 38.6046 92.4631 39.2201L99.292 47.7881L114.168 24.0048C115.054 22.6014 116.149 21.8998 117.453 21.8998C118.438 21.8998 119.311 22.2198 120.074 22.86C120.861 23.5001 121.255 24.3372 121.255 25.3712C121.255 25.839 121.157 26.3068 120.96 26.7746C120.787 27.2424 120.566 27.6855 120.295 28.1041L103.057 54.7677C102.614 55.4078 102.073 55.9126 101.433 56.2822C100.818 56.6268 100.141 56.799 99.4027 56.799Z" fill="#3897F0"/>
</svg>
